<svg width="699" height="277" viewBox="0 0 699 277" fill="none" xmlns="http://www.w3.org/2000/svg">
<path d="M699 12.4267C699 5.56362 693.436 0 686.573 0H12.4267C5.56362 0 -1.93715e-05 5.56361 -1.93715e-05 12.4267V159.57C-1.93715e-05 162.799 1.2568 165.901 3.50425 168.22L104.804 272.716C107.144 275.131 110.364 276.493 113.726 276.493H686.573C693.436 276.493 699 270.93 699 264.067V12.4267Z" fill="#222222"/>
<path d="M551.996 72.851C559.07 72.8511 565.188 74.523 570.35 77.8686C575.607 81.2143 579.669 85.7553 582.537 91.4907C585.5 97.1305 586.982 103.583 586.982 110.848C586.982 118.113 585.5 124.613 582.537 130.348C579.67 135.988 575.607 140.433 570.35 143.683C565.092 146.933 558.926 148.559 551.853 148.559C546.022 148.559 540.859 147.364 536.366 144.974C531.969 142.584 528.576 139.238 526.187 134.937V178.383H514.142V74.5708H525.039L526.043 86.3286C527.572 84.0345 529.532 81.8838 531.922 79.8764C534.312 77.7736 537.179 76.1005 540.524 74.8579C543.87 73.5196 547.695 72.851 551.996 72.851ZM311.417 72.851C318.491 72.8511 324.465 74.4281 329.34 77.5825C334.311 80.737 338.087 84.8952 340.668 90.0571C343.344 95.1233 344.683 100.716 344.683 106.833V109.844C344.683 110.896 344.635 112.091 344.539 113.429H288.231C288.446 118.479 289.482 122.781 291.343 126.333C293.541 130.348 296.362 133.359 299.803 135.367C303.34 137.374 307.115 138.378 311.13 138.378C316.196 138.378 320.354 137.279 323.605 135.08C326.95 132.786 329.341 129.727 330.774 125.904H342.675C341.528 130.205 339.521 134.077 336.653 137.518C333.786 140.959 330.201 143.683 325.899 145.691C321.693 147.603 316.77 148.559 311.13 148.559C304.343 148.559 298.321 146.981 293.063 143.827C287.902 140.672 283.839 136.275 280.876 130.635C277.913 124.9 276.431 118.256 276.431 110.705C276.431 103.057 277.865 96.4137 280.732 90.7739C283.696 85.1341 287.806 80.737 293.063 77.5825C298.417 74.428 304.534 72.851 311.417 72.851ZM616.957 72.851C624.7 72.851 630.962 74.7148 635.741 78.4428C640.521 82.1708 643.341 87.5715 644.201 94.645H632.3C631.822 91.0127 630.245 88.1924 627.568 86.185C624.988 84.0821 621.403 83.0308 616.815 83.0307C612.322 83.0307 608.88 83.9391 606.49 85.7553C604.196 87.5715 603.049 89.9611 603.049 92.9243C603.049 94.836 603.671 96.5569 604.913 98.0864C606.251 99.5202 608.163 100.763 610.648 101.815C613.229 102.866 616.384 103.727 620.112 104.396C624.892 105.256 629.241 106.403 633.16 107.836C637.079 109.27 640.234 111.422 642.624 114.289C645.109 117.062 646.352 121.028 646.352 126.19C646.352 130.683 645.204 134.602 642.91 137.948C640.712 141.293 637.558 143.923 633.447 145.834C629.337 147.651 624.509 148.559 618.965 148.559C612.943 148.559 607.685 147.555 603.192 145.547C598.795 143.54 595.259 140.768 592.582 137.231C590.001 133.598 588.423 129.344 587.85 124.469H600.182C600.66 126.954 601.663 129.249 603.192 131.352C604.722 133.455 606.777 135.176 609.358 136.514C612.035 137.757 615.285 138.378 619.108 138.378C622.454 138.378 625.226 137.9 627.425 136.944C629.623 135.892 631.248 134.506 632.3 132.786C633.447 131.065 634.021 129.201 634.021 127.194C634.021 124.231 633.304 121.984 631.87 120.455C630.532 118.925 628.524 117.731 625.848 116.871C623.171 115.915 619.921 115.102 616.098 114.433C612.943 113.86 609.836 113.094 606.777 112.138C603.719 111.182 600.994 109.94 598.605 108.411C596.215 106.786 594.302 104.826 592.868 102.532C591.53 100.238 590.861 97.4174 590.861 94.0717C590.861 89.9613 591.913 86.3288 594.016 83.1743C596.119 79.9242 599.13 77.3909 603.049 75.5747C607.064 73.7585 611.7 72.8511 616.957 72.851ZM456.391 44.7466C466.236 44.7466 474.792 46.9451 482.057 51.3423C489.322 55.7395 494.962 61.8573 498.977 69.6958C503.087 77.4386 505.142 86.4246 505.142 96.6528C505.142 106.976 503.087 116.058 498.977 123.896C494.962 131.639 489.322 137.709 482.057 142.106C474.792 146.407 466.236 148.558 456.391 148.558C446.736 148.558 438.229 146.407 430.868 142.106C423.603 137.709 417.915 131.639 413.805 123.896C409.79 116.058 407.782 106.976 407.782 96.6528C407.782 86.4246 409.79 77.4386 413.805 69.6958C417.915 61.8573 423.603 55.7395 430.868 51.3423C438.229 46.9452 446.736 44.7466 456.391 44.7466ZM242.405 46.4673C250.244 46.4673 256.648 47.8055 261.619 50.4819C266.59 53.0629 270.27 56.5525 272.66 60.9497C275.05 65.3468 276.244 70.3176 276.244 75.8618C276.244 81.2148 275.002 86.1376 272.517 90.6303C270.127 95.1231 266.398 98.7077 261.332 101.384C259.523 102.34 257.53 103.124 255.354 103.739L277.248 146.838H263.053L242.661 105.393C242.387 105.396 242.11 105.399 241.832 105.399H222.045V146.838H210V46.4673H242.405ZM376.717 135.223L398.655 74.5708H410.986L383.6 146.837H369.691L342.305 74.5708H354.922L376.717 135.223ZM550.562 83.3178C545.782 83.3179 541.577 84.4652 537.944 86.7592C534.312 89.0534 531.492 92.2554 529.484 96.3657C527.477 100.476 526.473 105.256 526.473 110.705C526.473 116.249 527.477 121.077 529.484 125.187C531.492 129.202 534.312 132.356 537.944 134.65C541.577 136.944 545.782 138.091 550.562 138.091C555.245 138.091 559.404 136.944 563.036 134.65C566.669 132.356 569.489 129.202 571.496 125.187C573.599 121.077 574.65 116.249 574.65 110.705C574.65 105.256 573.599 100.476 571.496 96.3657C569.489 92.2554 566.669 89.0534 563.036 86.7592C559.404 84.4651 555.245 83.3178 550.562 83.3178ZM456.391 55.5005C449.221 55.5005 442.865 57.1255 437.32 60.3755C431.872 63.6256 427.618 68.3574 424.559 74.5708C421.595 80.6886 420.114 88.0496 420.114 96.6528C420.114 105.256 421.595 112.664 424.559 118.877C427.618 124.995 431.872 129.727 437.32 133.073C442.865 136.323 449.221 137.948 456.391 137.948C463.656 137.948 470.012 136.323 475.461 133.073C481.005 129.727 485.259 124.995 488.223 118.877C491.282 112.664 492.811 105.256 492.811 96.6528C492.811 88.0496 491.282 80.6886 488.223 74.5708C485.259 68.3574 481.005 63.6256 475.461 60.3755C470.012 57.1254 463.656 55.5005 456.391 55.5005ZM311.13 83.0307C307.02 83.0308 303.196 83.9871 299.659 85.8989C296.218 87.7151 293.446 90.4393 291.343 94.0717C289.688 96.855 288.688 100.201 288.335 104.109H332.925C332.638 97.5132 330.439 92.3515 326.329 88.6235C322.314 84.8954 317.248 83.0307 311.13 83.0307ZM222.045 95.936H241.545C249.192 95.936 254.784 94.0721 258.321 90.3442C261.954 86.6162 263.769 81.8363 263.77 76.0053C263.77 70.0788 262.002 65.3948 258.465 61.9536C255.024 58.4167 249.335 56.6479 241.401 56.6479H222.045V95.936Z" fill="url(#paint0_linear_0_1)"/>
<path d="M505.312 196.573C509.066 196.573 512.287 197.41 514.975 199.083C517.664 200.757 519.744 202.99 521.215 205.78C522.685 208.519 523.421 211.562 523.421 214.91C523.421 215.417 523.395 215.975 523.344 216.583C523.344 217.141 523.319 217.776 523.268 218.486H493.853C493.973 220.836 494.469 222.865 495.344 224.573C496.41 226.5 497.805 227.971 499.53 228.986C501.254 229.949 503.131 230.431 505.16 230.431C507.595 230.431 509.598 229.899 511.171 228.833C512.743 227.768 513.91 226.323 514.671 224.497H522.279C521.62 226.83 520.504 228.935 518.931 230.812C517.359 232.638 515.406 234.084 513.073 235.149C510.79 236.214 508.153 236.747 505.16 236.747C501.508 236.746 498.261 235.91 495.421 234.236C492.58 232.562 490.348 230.228 488.725 227.236C487.153 224.243 486.367 220.768 486.367 216.812C486.367 212.754 487.153 209.229 488.725 206.236C490.348 203.192 492.58 200.834 495.421 199.16C498.261 197.435 501.559 196.573 505.312 196.573ZM588.172 196.573C592.838 196.573 596.744 197.79 599.888 200.225C603.033 202.66 605.037 205.957 605.899 210.117H597.986C597.479 207.885 596.312 206.16 594.486 204.943C592.711 203.726 590.581 203.117 588.095 203.117C586.066 203.117 584.189 203.649 582.464 204.714C580.74 205.729 579.345 207.251 578.28 209.28C577.266 211.258 576.758 213.718 576.758 216.66C576.758 218.841 577.063 220.793 577.672 222.518C578.28 224.192 579.092 225.613 580.106 226.78C581.171 227.946 582.389 228.833 583.758 229.442C585.128 230 586.574 230.28 588.095 230.28C589.769 230.28 591.266 230.025 592.585 229.518C593.954 228.96 595.095 228.149 596.008 227.083C596.972 226.018 597.631 224.75 597.986 223.28H605.899C605.037 227.337 603.033 230.609 599.888 233.094C596.743 235.529 592.838 236.746 588.172 236.747C584.469 236.747 581.171 235.91 578.28 234.236C575.389 232.511 573.106 230.152 571.432 227.16C569.809 224.167 568.998 220.692 568.998 216.736C568.998 212.729 569.809 209.229 571.432 206.236C573.106 203.192 575.389 200.834 578.28 199.16C581.171 197.435 584.469 196.573 588.172 196.573ZM464.206 182.573C467.909 182.573 471.004 183.182 473.489 184.399C475.974 185.566 477.825 187.189 479.043 189.269C480.311 191.298 480.945 193.606 480.945 196.193C480.945 198.881 480.362 201.138 479.195 202.964C478.028 204.79 476.481 206.211 474.553 207.225C473.626 207.701 472.661 208.078 471.659 208.356C473.176 208.641 474.598 209.203 475.924 210.04C477.851 211.207 479.373 212.779 480.489 214.757C481.605 216.736 482.163 218.917 482.163 221.301C482.163 224.04 481.503 226.526 480.184 228.757C478.866 230.938 476.913 232.663 474.326 233.931C471.739 235.199 468.569 235.833 464.815 235.833H444.5V182.573H464.206ZM548.994 196.573C552.037 196.573 554.65 197.182 556.831 198.399C559.012 199.616 560.711 201.468 561.928 203.954C563.146 206.388 563.755 209.457 563.755 213.16V235.833H556.145V213.92C556.145 210.37 555.359 207.682 553.787 205.856C552.214 204.03 549.932 203.117 546.939 203.117C544.961 203.117 543.185 203.598 541.613 204.562C540.041 205.475 538.773 206.845 537.809 208.67C536.896 210.496 536.439 212.729 536.439 215.367V235.833H528.831V197.486H535.678L536.134 204.03C537.352 201.747 539.077 199.946 541.309 198.627C543.541 197.258 546.103 196.573 548.994 196.573ZM619.367 203.725C620.635 201.493 622.385 199.743 624.617 198.475C626.899 197.207 629.411 196.573 632.15 196.573C635.193 196.573 637.806 197.207 639.987 198.475C642.168 199.692 643.842 201.544 645.008 204.03C646.175 206.464 646.758 209.533 646.758 213.236V235.833H639.226V213.997C639.226 210.446 638.465 207.757 636.943 205.931C635.421 204.055 633.164 203.117 630.171 203.117C628.143 203.117 626.316 203.598 624.693 204.562C623.07 205.526 621.777 206.946 620.813 208.823C619.849 210.649 619.367 212.881 619.367 215.518V235.833H611.758V181.051H619.367V203.725ZM452.108 229.518H463.826C467.174 229.518 469.761 228.757 471.587 227.236C473.463 225.663 474.402 223.456 474.402 220.616C474.402 217.826 473.438 215.594 471.51 213.92C469.634 212.247 467.021 211.41 463.674 211.41H452.108V229.518ZM505.236 202.888C503.157 202.888 501.254 203.37 499.53 204.333C497.805 205.247 496.41 206.617 495.344 208.443C494.606 209.735 494.138 211.282 493.937 213.083H515.812C515.66 209.888 514.595 207.403 512.617 205.627C510.639 203.801 508.178 202.888 505.236 202.888ZM452.108 205.551H463.369C466.565 205.551 469 204.815 470.674 203.344C472.347 201.823 473.184 199.743 473.184 197.106C473.184 194.57 472.347 192.565 470.674 191.094C469 189.573 466.489 188.812 463.141 188.812H452.108V205.551Z" fill="url(#paint1_linear_0_1)"/>
<path d="M142.889 31.7466C156.294 31.7468 167.162 42.6143 167.162 56.02C167.162 63.5626 163.721 70.3007 158.324 74.7522C154.065 78.2647 150.231 82.9116 150.231 88.432V95.0601C150.231 100.581 154.065 105.228 158.324 108.74C163.721 113.192 167.162 119.931 167.162 127.473C167.162 140.879 156.294 151.746 142.889 151.747C129.483 151.747 118.615 140.879 118.615 127.473C118.615 120.041 121.955 113.39 127.215 108.938C131.353 105.436 135.056 100.847 135.056 95.4266V88.0655C135.056 82.6448 131.353 78.0568 127.216 74.5547C126.106 73.6151 125.081 72.5775 124.156 71.4553C120.643 67.1966 115.996 63.3628 110.476 63.3628H100.687C95.1661 63.3628 90.5191 67.1969 87.0064 71.4557C82.5547 76.8529 75.8161 80.2934 68.2734 80.2935C54.8676 80.2935 44 69.4258 44 56.02C44 42.6142 54.8676 31.7466 68.2734 31.7466C75.7051 31.7466 82.3566 35.0864 86.809 40.347C90.311 44.4846 94.8992 48.187 100.32 48.187H110.842C116.263 48.187 120.851 44.4846 124.353 40.3471C128.806 35.0865 135.457 31.7466 142.889 31.7466Z" fill="url(#paint2_linear_0_1)"/>
<defs>
<linearGradient id="paint0_linear_0_1" x1="199.246" y1="98.0121" x2="645.654" y2="98.0121" gradientUnits="userSpaceOnUse">
<stop offset="0.365385" stop-color="white"/>
<stop offset="1" stop-color="#D5D5D5"/>
</linearGradient>
<linearGradient id="paint1_linear_0_1" x1="444.5" y1="209.203" x2="653.216" y2="187.649" gradientUnits="userSpaceOnUse">
<stop stop-color="white"/>
<stop offset="1" stop-color="#DBDBDB"/>
</linearGradient>
<linearGradient id="paint2_linear_0_1" x1="29.6712" y1="31.7707" x2="169.421" y2="110.666" gradientUnits="userSpaceOnUse">
<stop stop-color="#00E6A0"/>
<stop offset="1" stop-color="#00CFFF"/>
</linearGradient>
</defs>
</svg>
